<svg xmlns="http://www.w3.org/2000/svg" xmlns:xlink="http://www.w3.org/1999/xlink" width="1920" height="998" viewBox="0 0 1920 998">
  <defs>
    <clipPath id="clip-Artboard_10">
      <rect width="1920" height="998"/>
    </clipPath>
  </defs>
  <g id="Artboard_10" data-name="Artboard – 10" clip-path="url(#clip-Artboard_10)">
    <rect width="1920" height="998" fill="#272528"/>
    <path id="Path_1830" data-name="Path 1830" d="M5956,2715v997.162" transform="translate(-5859 -2715)" fill="none" stroke="#3b3b3b" stroke-width="1"/>
    <rect id="Rectangle_285" data-name="Rectangle 285" width="4" height="103" rx="2" transform="translate(95 217)" fill="#3b3b3b"/>
    <rect id="Rectangle_286" data-name="Rectangle 286" width="4" height="103" rx="2" transform="translate(95 907)" fill="#3b3b3b"/>
    <path id="Path_1830-2" data-name="Path 1830" d="M5956,2715v997.162" transform="translate(-5605 -2715)" fill="none" stroke="#3b3b3b" stroke-width="1"/>
    <rect id="Rectangle_285-2" data-name="Rectangle 285" width="4" height="103" rx="2" transform="translate(349 -23)" fill="#3b3b3b"/>
    <rect id="Rectangle_286-2" data-name="Rectangle 286" width="4" height="103" rx="2" transform="translate(349 567)" fill="#3c3c3c"/>
    <path id="Path_1830-3" data-name="Path 1830" d="M5956,2715v997.162" transform="translate(-5351 -2715)" fill="none" stroke="#3b3b3b" stroke-width="1"/>
    <rect id="Rectangle_285-3" data-name="Rectangle 285" width="4" height="103" rx="2" transform="translate(603 217)" fill="#393939"/>
    <rect id="Rectangle_286-3" data-name="Rectangle 286" width="4" height="103" rx="2" transform="translate(603 907)" fill="#3b3b3b"/>
    <path id="Path_1830-4" data-name="Path 1830" d="M5956,2715v997.162" transform="translate(-5097 -2715)" fill="none" stroke="#3b3b3b" stroke-width="1"/>
    <rect id="Rectangle_285-4" data-name="Rectangle 285" width="4" height="103" rx="2" transform="translate(857 57)" fill="#393939"/>
    <rect id="Rectangle_286-4" data-name="Rectangle 286" width="4" height="103" rx="2" transform="translate(857 717)" fill="#393939"/>
    <path id="Path_1830-5" data-name="Path 1830" d="M5956,2715v997.162" transform="translate(-4843 -2715)" fill="none" stroke="#3b3b3b" stroke-width="1"/>
    <rect id="Rectangle_285-5" data-name="Rectangle 285" width="4" height="103" rx="2" transform="translate(1111 217)" fill="#393939"/>
    <rect id="Rectangle_286-5" data-name="Rectangle 286" width="4" height="103" rx="2" transform="translate(1111 907)" fill="#393939"/>
    <path id="Path_1830-6" data-name="Path 1830" d="M5956,2715v997.162" transform="translate(-4589 -2715)" fill="none" stroke="#3b3b3b" stroke-width="1"/>
    <rect id="Rectangle_285-6" data-name="Rectangle 285" width="4" height="103" rx="2" transform="translate(1365 -33)" fill="#393939"/>
    <rect id="Rectangle_286-6" data-name="Rectangle 286" width="4" height="103" rx="2" transform="translate(1365 707)" fill="#393939"/>
    <path id="Path_1830-7" data-name="Path 1830" d="M5956,2715v997.162" transform="translate(-4335 -2715)" fill="none" stroke="#3b3b3b" stroke-width="1"/>
    <rect id="Rectangle_285-7" data-name="Rectangle 285" width="4" height="103" rx="2" transform="translate(1619 97)" fill="#393939"/>
    <rect id="Rectangle_286-7" data-name="Rectangle 286" width="4" height="103" rx="2" transform="translate(1619 907)" fill="#393939"/>
    <path id="Path_1830-8" data-name="Path 1830" d="M5956,2715v997.162" transform="translate(-4081 -2715)" fill="none" stroke="#3b3b3b" stroke-width="1"/>
    <rect id="Rectangle_285-8" data-name="Rectangle 285" width="4" height="103" rx="2" transform="translate(1873 217)" fill="#3b3b3b"/>
    <rect id="Rectangle_286-8" data-name="Rectangle 286" width="4" height="103" rx="2" transform="translate(1873 907)" fill="#393939"/>
  </g>
</svg>
